<?xml version="1.0" encoding="UTF-8"?>
<svg id="Layer_1" data-name="Layer 1" xmlns="http://www.w3.org/2000/svg" viewBox="0 0 1000 1000">
  <defs>
    <style>
      .cls-1 {
        fill: #252824;
      }

      .cls-1, .cls-2 {
        stroke-width: 0px;
      }

      .cls-2 {
        fill: #f4805d;
      }
    </style>
  </defs>
  <path class="cls-1" d="m26.93,664.03c.98-.88,2.18-.63,3.31-.63,12.71-.01,25.42.07,38.13-.07,2.67-.03,3.25.79,3.23,3.32-.07,8.88.02,8.88-8.7,8.88-.81,0-1.63.09-2.42-.02-2.42-.32-3.16.68-3.13,3.09.12,9.12-.12,18.26.14,27.38.09,3.34-1.03,4.18-4.09,3.9-2.64-.24-5.33-.24-7.96,0-2.93.27-3.98-.47-3.89-3.7.26-9-.02-18.02.16-27.03.06-2.82-.62-3.73-3.58-3.73-3.72,0-7.58,1.08-11.18-.77,0-3.54,0-7.08,0-10.61Z"/>
  <path class="cls-1" d="m593.12,377.38c10.18-1.41,20.37-2.52,30.69-2.37,28.64.41,51.6,13.03,71.3,32.8.65.65,1.18,1.42,1.68,2.2.28.43.79.85.31,1.96-8.64-4.45-15.8-11.09-24.18-15.77-.3-.16-.6-.32-.9-.48-.33-.42-.84-1.02-1.25-.5-.47.59.43.78.77,1.12.19.18.38.36.57.55,1.97,2.32,4.7,4,6.38,7.63-6.32-2.52-10.83-6.69-16.08-9.58-.28-.18-.56-.37-.83-.55-.19-.47-.65-.86-.99-.51-.43.44.28.65.53.94.2.23.4.45.6.68,1.05,1.6,2.68,2.83,3.37,5.44-4.98-1.97-8.29-5.65-12.33-8.15-.3-.31-.62-.69-1.01-.21-.09.11.19.53.3.81,1.08,1.99,2.93,3.54,3.59,6.61-6.43-2.4-11.62-6.2-17.89-9.57,2.02,3.67,4.92,5.79,5.85,9.62-4.82-1.57-8.3-4.62-12.25-6.79-.35-.18-.75-.6-1.05-.02-.08.15.26.51.41.77,2.83,3.78,6.08,7.25,8.39,11.4,2.59,4.66,1.67,5.86-3.51,6.16-9.13.54-16.96-1.89-24.07-7.83-6-5.02-13.39-7.41-21.14-8.81-.11,1.18.76,1.2,1.26,1.44,17.15,8.45,28.97,21.87,35.84,39.49,4.67,11.97,3.91,23.95-2.37,35.36-.87,1.59-1.71,3.26-3.72,4.19-1.08-3.68,1.11-6.76,1.5-10.08.39-.42.63-.86.25-1.42l-.9.77c-1.49,1.15-2.95,3.74-4.76,2.59-2.11-1.34-.04-3.72.33-5.64.3-1.54,1.57-2.81,1.41-4.51-1.92,1.82-3.74,3.65-5.69,5.34-.72.62-1.66,1.51-2.74.64-.97-.78-.21-1.73.07-2.54,1.45-4.13,3.46-8.05,4.45-12.35.28-1.23.76-2.4.29-3.99-1.58,2.76-2.97,5.37-4.56,7.85-.62.96-1.35,2.59-2.82,1.89-1.15-.55-.7-2.08-.5-3.19.61-3.5,1.29-6.98,1.97-10.59-.46.14-.74.15-.87.29-1.18,1.2-1.81,4.01-3.34,3.47-1.8-.63-.86-3.3-.76-5.02.25-4.58.81-9.13,1.3-14.3-1.81,3.03-3.29,5.59-4.88,8.08-.47.74-1.04,1.74-2.06,1.65-1.26-.11-1.45-1.4-1.74-2.33-1.43-4.65-2.01-9.46-2.45-14.3-.13-1.37-.39-2.74-.7-4.81-.85,1.68-1.4,2.81-2,3.92-.43.81-.82,1.89-1.83,1.9-1.21,0-1.21-1.31-1.42-2.1-2.05-7.64-7.25-11.4-14.88-12.38,21.99,78.06,6.31,150.5-32.43,219.5,1.33.86,2.63.5,3.85.5,28.78.02,57.55,0,86.33.06,2.56,0,4.57-.63,6.6-2.28,43.21-35.11,70.43-79.85,78.5-135,10.92-74.58-11.47-138.52-65.91-190.57-31.26-29.89-68.93-47.95-111.75-54.66-50.35-7.89-97.84.62-142.2,25.86-1.99,1.13-3.37,1.16-5.31,0-5.89-3.54-11.92-6.86-18.4-10.56,3.54-2.3,6.57-4.34,9.66-6.28,28.48-17.86,59.43-29.01,92.77-33.03,121.93-14.72,228.39,65.07,252.51,177.59,16.47,76.84-2.38,145.42-54.72,204.41-10.08,11.36-21.56,21.21-33.73,30.28-1.98,1.48-3.95,2.02-6.37,2.02-85.98-.05-171.96-.05-257.94,0-2.32,0-4.2-.57-6.05-1.95-48.01-36.02-78.78-83.13-89.98-142.24-11.18-59.02-.35-114.19,31.21-165.31,1.32-2.13,2.57-2.95,5.22-2.57,5.93.85,11.94,1.2,17.91,1.76.07,0,.13.15.41.51-1.73,2.4-3.54,4.87-5.31,7.38-20.77,29.53-34.05,62.1-37.71,98.05-8.05,78.94,18.93,143.77,79.87,194.54,1.56,1.3,3.16,2.06,5.31,2.05,16.18-.08,32.36-.03,48.54-.07.96,0,2.32.54,2.78-.62.43-1.09-.86-1.76-1.48-2.51-20.09-24.57-34.71-51.9-41.63-83.05-3.6-16.21-5.01-32.6-3.29-49.19.12-1.13.02-2.29.02-3.69-6.05,1.33-7.77,5.86-8.49,10.98-1.61.21-1.77-1.57-3.2-1.74,0,3.22.04,6.38-.02,9.54-.03,1.21.49,2.91-.93,3.41-1.37.49-2.09-1.12-2.97-1.97-.41-.4-.8-.83-1.2-1.24-.31-.28-.61-.55-.92-.83-.38.58-.15,1.05.27,1.48.68,2.64,1.4,5.27,2.02,7.92.16.68.7,1.7-.35,2.02-.44.13-1.14-.56-1.72-.88-.31-.25-.62-.51-.93-.76-.41.58-.12.99.33,1.37.42,2.45,2.18,4.56,1.96,7.41-2.95-.5-3.7-3.38-5.99-5.02.86,4.39,4.17,7.18,5.52,11.01-2.37,1.02-3.54-1.36-5.3-1.73-.63.88.13,1.34.37,1.92.43,1.04,1.57,2.15.93,3.17-.92,1.44-2.21-.45-3.58-.11.08,2.14,2.27,3.71,1.69,6.55-5.07-4.18-7.59-9.31-8.64-15.2-1.94-10.83,2.06-20.18,7.66-29.04,2.55-4.03,5.83-7.44,9.44-10.54.23-.3.47-.6.71-.9-.52-.37-.98-.23-1.4.19-4.66,1.78-8.39,4.88-11.48,8.66-3.84,4.69-9.24,5.71-14.65,6.57-2.59.41-2.32-1.83-1.74-3.34,1.15-2.99,2.59-5.88,3.91-8.81.49-.17.79-.64.42-.92-.43-.33-.56.35-.8.63-2.36,1.39-3.75,4.03-6.46,5.08-.79-1.59.7-2.62.77-3.93.38-.4.84-.81.33-1.38-.04-.05-.65.42-.99.64-2.29,1.83-4.53,3.72-6.88,5.48-1.96,1.47-1.67.09-1.37-1.19.2-.49.41-.98.61-1.47.39-.39.72-.79.26-1.34-.29.27-.58.53-.87.8-.28.36-.55.73-.83,1.09-1.9,1.35-3.01,3.59-5.22,4.66-.7-1,.47-1.67.34-2.51.42-.35.85-.71.34-1.27-.03-.03-.6.45-.92.69-2.79,2.04-4.53,5.32-7.91,6.65l.05.06c-.63-1.58,1.32-2.33,1.16-4.39-4.93,3.6-8.2,8.49-12.86,12.03.38-6.01,15.38-21.22,26-26.84,11.5-6.09,24.01-7.68,36.81-8.97-2.98-.87-5.98-1.69-8.93-2.65-.93-.3-2.35-.44-2.5-1.56-.16-1.21,1.5-1.14,2.44-2.35-3.09,0-5.87.04-8.65-.02-1.21-.02-2.89.25-3.25-1.16-.3-1.19,1.25-1.73,2.12-2.47.67-.57,1.77-.65,2.05-1.83-3.58-.02-6.77,1.42-10.08,2.27-.77.2-1.66.81-2.24.05-.7-.93.15-1.78.77-2.37,1.4-1.34,2.92-2.55,4.58-3.98-3.01-.37-5.73-1.89-8.67-.15-.75.44-2.1,1.28-2.76.07-.63-1.15.73-1.73,1.48-2.38.32-.28.67-.55,1.59-1.3-3.09.33-5.42.64-7.77.81-.74.06-1.8.41-2.19-.48-.52-1.18.7-1.58,1.41-2.01,6.83-4.07,14.14-4.79,21.67-2.62,11.86,3.41,21.05,10.7,28.64,20.2.63.78.95,1.86,2.53,2.35-3.85-13.59-3.24-26.21,7.06-36.78,3.04-3.12,6.23-6.12,11.2-6.45-.02,1.95-1.4,2.51-2.44,3.24-3.83,2.7-6.95,6.05-9.49,9.97-.66,1.02-1.18,1.65.49,2.55,4.57,2.45,4.59,3.37.73,6.94,1.56,1.04,4.61-.8,4.92,1.68.34,2.73-2.86,3.14-4.62,4.44.17.72.73.42,1.09.44,4.5.24,4.43.2,2.7,4.2-1.22,2.81-2.57,5.61-3.1,9.45,10.89-10.85,20.9-21.93,36.4-24.67,1.94-.34,4.14-.71,6.21,1.02-3.46,1.35-7.18,1.15-10.24,3,.13,1.02,1.04.87,1.51,1.28.72.64,1.51,1.23,1.01,2.29-.44.94-1.38.7-2.15.52-1.71-.39-3.4-.67-5.05.28.12.19.18.42.32.5,1.41.73,3.56,1.35,3.13,3.14-.49,2.05-2.73,1.02-4.21,1.02-2.28,0-4.56-.26-6.92.65,3.33,1.43,5.71,4.4,10.21,3.82,12.24-1.58,24.41-.54,36.36,2.62,2.67.71,5.32,1.6,7.51,3.4.75.61,2.16,1.18,1.52,2.35-.54.99-1.92.51-2.86.27-3.12-.78-5.91-2.63-9.19-2.92-.49-.33-1-.5-1.55-.14.3.29.59.57.89.86,1.43,1.27,3.35,2.03,4.42,4.13-4.07,1.03-6.63-2.62-10.5-3.08.44.64.66.97.9,1.3.53.75,1.34,1.62.6,2.44-.87.96-1.9.25-2.77-.34-1.39-.94-2.57-2.22-4.46-2.73.11,1.37,2.36,2.4.81,3.59-1.24.96-2.57-.31-3.76-.92-.91-.47-1.79-1.01-2.68-1.52-.26-.35-.57-.6-.93-.19-.07.08.21.48.33.73.24.89,1.53,1.74.34,2.69-.88.7-1.71-.17-2.48-.55-1.21-.59-2.37-1.29-3.55-1.95-.35-.44-.72-.76-1.3-.35.23.31.46.62.69.93.37.79,1.61,1.43.9,2.38-.83,1.1-1.97.15-2.83-.2-3.04-1.25-5.49-3.82-9.63-3.4,1.3,1.13,2.62,2.24,3.9,3.39.44.4.73.99.31,1.53-.46.6-1.08.19-1.56-.05-.61-.31-1.2-.72-1.7-1.18-5.79-5.38-15.08-2.67-20.1.53,13.27,1.48,25.65,5.2,37.43,10.98,11.19,5.49,20.29,13.15,25.86,24.53,1.03,2.12,2.3,4.2,1.82,7.31-2.59-2.53-3.35-5.85-5.61-7.93-.88.09-.56.68-.6,1.05-.1.88.32,2.09-.87,2.35-1.23.27-1.76-.89-2.26-1.79-1.11-1.99-1.73-4.26-3.4-5.98-.18.21-.37.34-.41.51-.31,1.21,1.26,3.06-.68,3.58-1.51.4-2.19-1.4-2.94-2.52-1.69-2.48-3.32-4.99-4.98-7.48-.31-.28-.61-.56-.91-.85-.51.62-.08.98.35,1.35.69,1.92,1.45,3.82,2.04,5.76.25.82.55,1.98-.49,2.44-1.24.55-1.83-.56-2.32-1.44-1.21-2.18-2.35-4.4-3.52-6.61-.32-.26-.32-1.19-.96-.72-.42.31-.08.96.24,1.39-.17,1.78,1.65,4.58-.78,5.08-2.04.42-2.32-2.7-3.01-4.42-1.14-2.81-1.61-5.89-3.14-8.54-1.33.44-.45,1.01-.48,1.45-.08,1.09.73,2.59-.39,3.18-1.2.62-1.41-1.44-2.19-1.64-5.41-1.35-4.6-7.12-7.58-10.5-1.14,2.12-.46,4.38-1.33,6.81-2.37-1.93-4.21-4.28-6.73-5.77-2.45-1.44-4.82-3.03-8.5-3.38,7.38,5.97,13.41,12.28,18.2,19.69,6.58,10.19,11.29,21.13,13.13,33.19.34,2.25.48,4.33-3.07,3.02.55,3.77,1.02,7.41.75,11.1-.06.8-.11,1.64-.38,2.38-.3.82-.56,2.08-1.65,1.96-1.27-.15-.86-1.45-.85-2.28.04-3.45-.02-6.87-1.04-10.49-.77,2.62-.46,5.32-2.84,8.09-.41-4.84-.76-8.98-1.13-13.29-1.3.89-1.09,2.44-1.78,3.51-.42.65-.55,1.74-1.52,1.62-1.11-.13-.86-1.29-.85-1.99.06-3.21.25-6.43.41-10.08-1.63,1.24-1.6,2.89-2.38,4.06-.43.65-.62,1.71-1.61,1.56-1.19-.19-1.12-1.36-1.09-2.23.13-3.23.39-6.45.52-9.68.03-.85.32-1.83-.74-2.85-.9,2.45-1.7,4.75-2.6,6.99-.31.77-1.67,1.95-1.75,1.18-.35-3.4-4.89-4.26-4.44-8.03.19-1.6.64-3.62-1.68-4.54-.34-.14-.36-1.26-.41-1.93-.2-2.69.59-5.42-1.61-7.92-1.1-1.25-.36-3.57-.22-5.42.11-1.46.64-2.9.1-4.88-1.27,2.14-2.35,3.97-3.62,6.11-1.58-4.69-.58-9.17-.82-13.89-2.25,1.84-2.1,4.64-3.57,6.94-1.72-2.49-2.03-5.27-3.5-8.7-.94,6.93-.79,12.92-.37,18.91,3.32,47.72,25.85,85.83,59.34,118.47,1.63,1.59,3.32,2.14,5.55,2.13,21.15-.07,42.3-.07,63.44,0,2.14,0,3.6-.53,4.96-2.32,27.29-35.77,46.41-75.32,54.82-119.67,6.02-31.72,5.32-63.37-2.53-94.78-.25-.98-.55-1.95-1.1-3.88-.41,3.35-.71,5.74-1,8.12-.3,2.47-.56,4.95-1.73,7.61-2.23-3.8-3.87-7.64-7.2-10.42,1.26,7.07,3.14,14,3.21,21.67-2.94-2.43-4.36-5.85-7.82-8.24,1.01,4.27,1.92,7.9,2.69,11.56.31,1.45.34,2.97.4,4.46.04,1.12-.47,1.77-1.72,1.45-.26-.22-.52-.44-.78-.66-.18.44-.12.8.31,1.06.66,3.39,1.44,6.76,1.93,10.17.18,1.27,1.09,3.33-1.85,3.22-1.21-.04-.48,1.2-.41,1.84.27,2.75.75,5.48.87,8.23.06,1.26,0,3.13-2.11,2.78-2.06-.35-2.06.59-1.74,2.06.15.67.31,1.38.26,2.05-.07,1.01,0,2.28-1.21,2.63-1.02.3-1.63-.67-2.19-1.39-1.86-2.38-3.1-5.11-4.49-7.77-.56-1.07-.7-2.44-2.22-3.25-.15,4.83,1.27,9.17,2.42,13.53.56,2.12,1.22,4.2,1.34,6.41.07,1.24.56,2.91-.81,3.39-1.33.46-2.14-1.11-2.83-2.1-1.56-2.25-2.99-4.59-4.79-7.41-.15,4.12,1.18,7.38,2.07,10.7.6,2.22,1.51,4.38,1.43,6.73-.03.96.51,2.33-.8,2.68-1.17.32-1.77-.9-2.33-1.74-1.19-1.79-2.29-3.63-3.84-6.1-.08,5.75.93,10.66,1.56,15.59.04.34.21.67.24,1.01.08,1.12.7,2.68-.49,3.17-1.56.64-2.06-1.13-2.53-2.17-1.22-2.7-2.24-5.49-3.63-8.98-.13,5.99.56,11.14,1.55,16.26.13.68.37,1.34.42,2.02.05.89.34,2.03-.81,2.39-1.05.33-1.7-.58-2.21-1.32-3.17-4.6-3.16-10.02-3.73-15.26-.23-2.12-.04-4.28-.04-6.63-1.69.56-2.36,2.9-4.09,1.72-1.47-.99-1.36-2.85-1.44-4.42-.62-12.45,1.34-24.58,4.62-36.54,5.04-18.41,13.74-34.87,26.32-49.26.28-.38.56-.76.84-1.15.14-.11.28-.22.42-.33-.14-.03-.27-.05-.41-.08.02.15.04.31.06.46-.71-.57-1.19.01-1.72.35-7.89,3.91-13.73,9.95-18.17,17.77-2.04-3.52-2.64-7.14-3.28-11.01-1.88,1.78-2.15,4.07-2.52,6.24-.59,3.43-1.31,6.81-2.95,9.89-.48.89-.92,2.85-2.64.96-.28-.31-.43-.11-1.02,1.29-.6,1.42-.74,3.82-2.66,3.5-1.91-.32-1.24-2.72-1.35-4.2-.15-2.05.14-4.13-.02-6.25-2.29,4.71-2.52,9.88-3.2,14.94-.36,2.63-.73,5.26-1.58,7.78-.36,1.07-.86,2.44-2.26,2.24-1.26-.18-1.54-1.48-1.84-2.65-.79-3.11.37-6.2.02-9.93-2.41,4.57-3.45,9.01-4.69,13.38-.52,1.85-.79,4.63-3.19,4.11-2.2-.48-1.75-3.23-1.4-5.1.71-3.8,1.67-7.55,2.28-11.41-2.88,4.33-4.74,9.11-6.55,13.92-.73,1.95-1.41,3.91-2.76,5.54-.51.62-1.11,1.34-2,1.12-.89-.22-1.03-1.13-1.26-1.92-.67-2.33.61-4.56.28-6.87.64-.31.65-.86.53-1.45-.02-.09-.17-.15-.26-.22-.14.52-.28,1.03-.42,1.55-2.06,3.5-4.1,6.99-4.83,11.08-.2,1.11-.66,2.2-1.12,3.24-.43.96-1.03,1.92-2.31,1.64-1.06-.23-1.33-1.2-1.44-2.13-.14-1.25-.2-2.51-.29-3.76.32-.48.51-.97.06-1.49-.17.37-.33.73-.5,1.1-2.3,3.36-3.37,7.26-4.81,11-.45,1.17-.41,3.41-2.03,3.05-1.41-.32-.69-2.41-.65-3.71.05-1.48.32-2.98.71-4.42,2.7-10.11,6.39-19.92,13.34-27.82,8.61-9.79,18.59-18.17,29.72-25.1,13.07-8.14,26.82-14.74,41.83-19.1-.95-1.58-2.52-1.38-3.69-1.57-3.17-.54-6.42-.64-9.62-.95-7.2-.7-12.38,2.53-16.89,7.59-1.14,1.28-2.48,3.73-4.23,2.31-1.42-1.15.6-3.07,1.51-4.41,1.22-1.8,2.7-3.42,4.6-5.78-4.11,1.13-6.8,3.14-9.37,5.36-1.92,1.65-3.66,3.53-5.94,4.73-1.12.59-2.5,1.48-3.46.3-.78-.97.39-2.11.9-3.1.32-.61.68-1.19,1.03-1.79.32-.29.66-.62.21-1-.11-.09-.53.17-.8.27-2.26,1.36-4.06,3.27-5.97,5.06-1.06.99-2.32,2.41-3.83,1.49-1.79-1.09-.22-2.6.16-3.91.12-.43.31-.85.47-1.27.17-.29.34-.59.63-1.15,0-.18-.15-.1-.26.01-.02.02.09.17.13.25.14-.12.27-.24.4-.36-.05-.05-.1-.11-.28.09-.59-.17-.86.27-1.17.5-1.86,1.7-3.65,3.47-5.6,5.06-1.4,1.14-3.22,2.66-4.89,1.36-1.62-1.25.42-2.85.7-4.32.18-.29.35-.57.53-.86.2-.27.4-.53.59-.8.12-.13.23-.26.35-.39-.14,0-.27,0-.41.01.04.15.07.31.11.46-.52-.58-.81-.02-1.17.24-.2.18-.41.36-.61.54-1.99,1.72-3.99,3.43-5.97,5.17-1.13,1-2.37,2.41-3.88,1.36-1.71-1.18-.24-2.67.29-3.98.21-.53.51-1.03.77-1.54.56-.46,1.24-.84,1.26-1.92-.94.22-1.53.64-1.98,1.29-3.61,1.85-6.19,5.21-9.95,6.82-1.1.47-2.52,1.73-3.45.55-.93-1.18.61-2.29,1.37-3.19,1.68-1.99,3.54-3.82,5.81-6.24-4.29,1.11-7.47,2.89-10.56,4.86-2.14,1.37-4.21,2.87-6.66,3.63-1.13.35-2.55,1.45-3.43,0-.79-1.29.56-2.3,1.34-3.26,2.45-3.02,5.66-5.06,9.05-6.84,11.54-6.07,23.97-9.46,36.63-12.11,7.12-1.49,14.32-2.45,21.6-2.75,1.06-.04,2-.12,2.82-.97,2.57-2.68,5.74-4.63,9.01-7.15-3.06-1.17-5.8-.38-8.5.13-2.25.43-4.44,1.2-6.69,1.68-1.01.21-2.19.14-2.73-.99-.5-1.05-.09-2.09.67-2.86,1.27-1.28,2.66-2.45,4.32-3.97-3.08-.56-5.64.23-8.18,1.08-1.3.43-2.82,1.37-3.7-.18-.89-1.58.47-2.8,1.58-3.82.66-.6,1.43-1.08,2.52-1.88-5.71-1.66-11.18-1.28-16.99-1.25,1.24-2.76,3.53-2.97,5.51-3.37,8.11-1.61,15.85.33,23.4,2.97,13.76,4.81,25.88,12.58,37.44,21.29.91.69,1.85,1.35,3.08,1.81-2.23-4.99-4.87-9.71-8.1-14.09-2.75-3.74-2.62-4.12,1.92-5.5,1.28-.39,2.83-.06,3.89-1.4-2.71-.65-5.49-.97-7.62-2.89-2.14-1.94-1.86-3.66.89-4.56,1.93-.64,4-.86,6.35-1.34-1.74-.78-3.26-1.31-4.61-2.11-2.67-1.58-2.91-3.22-1-5.66.35-.45.83-.81,1.17-1.27,1.02-1.36,3.78-1.71,3.49-3.34-.27-1.54-2.19-2.83-3.49-4.12-4.54-4.55-9.9-7.88-15.73-10.55-1.37-.63-3.81-1.28-3.23-3,.63-1.91,3.07-1.11,4.57-.64,16.13,5.06,26.83,15.67,31.98,31.78,2.76,8.62,2.7,17.5,2.01,26.4-.04.51,0,1.03,0,2.5,2.11-4.09,3.57-7.43,5.46-10.52,9.62-15.7,21.71-28.74,39.49-35.26,8.83-3.23,17.83-3.41,26.76-.12.65.24,1.31.46,1.92.78.79.42,1.92.79,1.75,1.86-.13.82-1.19.96-1.97,1.19-2.71.8-5.5.51-8.26.61-2.08.07-4.15.01-6.78.01,2.39,1.15,4.39,2.07,6.33,3.09.81.43,1.66,1.1,1.26,2.18-.34.9-1.32.85-2.11.79-1.38-.1-2.74-.31-4.12-.44-2.19-.22-4.33-1.49-6.34,1.11-1.18,1.52-3.73.61-5.98.88,1.49,1.58,3.47,1.81,5.03,2.75,1.18.72,2.44,1.32,3.57,2.11,1.31.91,3.31,2.02,2.69,3.61-.68,1.74-2.83.76-4.39.62-4.89-.45-9.76-1.42-14.92-.02,1.66.73,3.37,1.39,4.98,2.22,1.18.61,2.95,1.08,2.74,2.72-.18,1.39-1.86,1.53-3.05,1.88-5.4,1.58-11.02,2.01-16.7,2.95.35.2.53.37.74.42,2.16.51,5.62-.08,5.94,2.26.29,2.15-3.13,2.92-5.1,3.96-4.05,2.16-8.22,4.1-12.34,6.14-.38.18-.75.36-1.13.54.54.49,1.04.25,1.53-.08Zm-199.29,87.74c4.38-.89,8.29-3.11,12.63-4.14-5.39-1.95-8.98,1.14-12.58,4.18-.19.07-.39.15-.58.22.12.09.24.18.36.27.06-.17.12-.35.18-.52Zm159.12-85.36c-13.77-7.45-18.77-7.71-23.08-3.43,7.84.32,15.51,1.52,23.08,3.43Zm-10.96,80.33c.06-.2.18-.38.16-.56-.01-.12-.2-.23-.3-.35-.06.18-.18.37-.17.55,0,.12.19.23.31.36Zm68.13-21.01c-.07-.21-.14-.41-.21-.62-.07.06-.2.1-.21.17-.04.2-.03.4-.03.61.15-.05.3-.1.46-.16Zm-33.98-59.22c-.09-.16-.19-.32-.28-.47-.07.09-.2.18-.19.26.02.21.1.41.16.61.1-.13.21-.26.31-.4Zm-183.95,86.18l-.15.19.24.03-.09-.22Zm162.42-85.82c-.07-.07-.15-.19-.22-.2-.08,0-.16.11-.25.17.07.07.15.19.22.2.08,0,.16-.11.25-.17Zm-109.64,122.62c-.06-.04-.14-.12-.18-.1-.08.04-.13.12-.2.19.12.04.24.08.37.12,0-.07,0-.14,0-.21Z"/>
  <path class="cls-1" d="m389.2,317.24c-9.73-5.5-19.4-11.12-29.22-16.46-14.18-7.72-25.94-18.41-37.08-29.88-1.04-1.07-1.97-2.27-2.85-3.48-4.42-6.04-2.86-12.38,4.2-15.1,10.88-4.19,22.09-4.87,32.52.86,21.24,11.65,42.17,23.85,63.23,35.83.19.11.31.32.69.73-7.24,1.92-14.33,3.81-21.42,5.69,30.68,1.4,61.33,1.13,92.1.78-5.31-1.3-10.61-2.6-16.48-4.03,2.49-2.89,4.52-5.85,7.14-8.13,2.97-2.6,5.48-5.57,8.01-8.52,1.36-1.58,2.28-1.56,4-.59,6.95,3.88,6.98,3.81,5.3,11.65-.61,2.82-1.04,5.68-1.83,8.44-.6,2.07.21,2.3,1.96,2.32,33.16.3,66.33.61,99.49,1,2.07.02,3.59-.86,4.97-2.05,2.91-2.51,6.19-3.44,10.52-2.81-2.39,4.18-4.67,8.22-6.99,12.23-.64,1.11-1.87.78-2.83.88-11.49,1.11-22.98,2.17-34.48,3.23-16.67,1.53-33.33,3.07-50,4.58-14.14,1.28-28.29,2.51-42.43,3.75-1.69.15-3.42.07-5.21.92,7.49,5.28,14.76,9.81,24.54,9.58,14.42-.34,28.87.54,43.32.77,2.73.04,4.55,1.02,5.85,3.41-1.16.8-2.33.41-3.42.42-15.6.03-31.2.06-46.8-.03-2.21-.01-3.53.5-4.6,2.6-1.53,3-4.1,5.36-7.64,5.19-19.7-.91-39.45-1.59-58.66-6.73-6.38-1.71-12.33-4.57-18.13-7.65-4.9-2.6-10.03-3.78-15.49-4.26-28.98-2.53-57.95-5.18-86.92-7.8-.92-.08-1.9-.1-2.73-.45-6.64-2.82-13.26-5.71-19.93-8.6.81-1.78,2.18-2.5,3.3-3.44,3.82-3.18,3.96-3.23,6.41,1.09,1.03,1.81,2.42,1.43,3.85,1.4,17.68-.33,35.35-.66,53.03-1.06,2.24-.05,4.29.34,6.38,1.16,11.25,4.45,22.54,8.8,33.82,13.18.45.24,1.1.69,1.37.21.4-.71-.51-.58-.86-.82Z"/>
  <path class="cls-1" d="m651.8,678.56c.39-5.22-.76-11.83.58-18.34,1.42-6.89,5.28-10.68,12.14-11.26,11.41-.96,22.85-.27,34.28-.43,1.39-.02,2.23.44,2.09,1.99-.02.23,0,.46,0,.69q.36,10.06-9.58,10.06c-5.89,0-11.78-.04-17.67.02-4.2.04-5.78,1.44-5.83,5.53-.11,8.78-.06,17.55-.02,26.33.01,3.22,1.73,4.96,4.97,4.9,5.08-.09,10.15-.34,15.23-.44,1.49-.03,2.12-.6,1.94-2.07-.01-.11,0-.23,0-.35-.03-3,1.03-6.75-.39-8.8-1.55-2.25-5.55-.67-8.47-.78-1.81-.07-2.3-.64-2.38-2.41-.38-8.63-.43-8.63,8.21-8.63,5.43,0,10.86.08,16.28-.04,2.05-.05,2.83.44,2.8,2.67-.12,9.58-.09,19.17-.01,28.75.02,1.84-.44,2.55-2.4,2.76-12.53,1.3-25.08,2.22-37.68,1.82-8.75-.28-13.67-5.48-14.07-14.33-.02-.35-.03-.69-.03-1.04,0-5.08,0-10.16,0-16.58Z"/>
  <path class="cls-1" d="m717.79,678.99c0-9.13.08-18.26-.05-27.38-.04-2.46.77-3.14,3.15-3.13,14.21.09,28.43.1,42.64,0,2.51-.02,3.23.84,3.05,3.19-.17,2.3-.15,4.63,0,6.93.13,2.15-.72,2.74-2.81,2.72-8.9-.1-17.8.04-26.69-.1-2.44-.04-3.1.71-3.1,3.12,0,8.12-.08,8.12,8.07,8.12,4.97,0,9.94.11,14.91-.05,2.21-.07,2.66.71,2.7,2.76.16,9.82.22,9.82-9.54,9.82-4.51,0-9.02.08-13.52-.04-1.97-.05-2.53.62-2.6,2.57-.34,9.74-.4,9.74,9.31,9.74,6.7,0,13.41.09,20.11-.05,2.31-.05,3.45.47,3.17,3.02-.34,3.08,1.28,7.03-.69,9.04-1.81,1.84-5.71.54-8.68.55-12.02.06-24.04-.07-36.05.1-2.85.04-3.46-.88-3.42-3.53.15-9.13.06-18.26.06-27.38Z"/>
  <path class="cls-1" d="m147.84,667.42c7.34-4.42,14.7-5.64,22.49-4.73,6.12.71,10.45,5.05,10.61,11.23.19,7.5.17,15.02.05,22.52-.13,8.2-4.93,13.05-13.2,13.33-5.31.18-10.63.18-15.94,0-2.49-.08-3.19.77-3.05,3.14.18,3.11-.02,6.24.07,9.35.04,1.62-.49,2.27-2.18,2.23-3.81-.1-7.63-.09-11.44,0-1.69.04-2.15-.62-2.15-2.23.04-18.95.05-37.89,0-56.84,0-1.79.75-2.11,2.28-2.06,2.65.08,5.34.24,7.97-.04,2.84-.3,4.41.59,4.49,4.09Zm.9,19.93c0,2.65.06,5.31-.02,7.96-.05,1.6.48,2.28,2.17,2.24,3.34-.1,6.69-.03,10.04-.03,3.18,0,4.52-1.92,4.61-4.77.13-4.15.03-8.3.04-12.46,0-3.09-1.72-4.72-4.61-4.79-2.51-.07-5.04.4-7.57.61-3.55.29-5.42,1.8-4.72,5.72.32,1.79.05,3.68.06,5.53Z"/>
  <path class="cls-1" d="m323.28,692.89c-3.92,0-7.85-.02-11.77.02-1.4.01-3.15-.51-3.09,2,.06,2.26.65,3.93,3.26,3.9,3.69-.05,7.38-.13,11.07-.32,3.91-.2,7.83-.5,11.73-.86,1.58-.15,2.11.48,2.01,1.93,0,.11,0,.23,0,.35.53,9.25.54,9.3-8.68,9.86-7.37.45-14.73,1-22.13.84-7.86-.17-12.79-4.78-12.96-12.67-.17-7.38-.18-14.77.01-22.15.21-8.02,4.66-12.58,12.63-13.13,6.79-.47,13.61-.46,20.4,0,7.65.53,12.11,4.94,12.48,12.54.26,5.18.02,10.38.13,15.57.04,1.77-.77,2.15-2.29,2.13-4.27-.04-8.54-.01-12.81-.01Zm-8.12-11.4c1.84,0,3.68,0,5.52,0,.96,0,1.86-.02,1.87-1.37.03-3.95.54-6.71-4.98-6.34-1.6.11-3.22,0-4.83.02-3.73.07-4.12.81-4.37,4.94-.22,3.63,2.16,2.64,4.03,2.74.92.05,1.84,0,2.76,0Z"/>
  <path class="cls-1" d="m852.91,710.58c-3.69,0-7.38.07-11.07-.01-7.48-.16-12.61-4.6-13-12.04-.41-7.94-.37-15.92-.02-23.87.32-7.21,4.96-11.53,12.26-11.98,8.06-.5,16.14-.52,24.2.04,6.09.42,10.48,4.29,11.18,10.34,1.02,8.83.96,17.74.05,26.57-.68,6.58-5.51,10.68-12.18,10.91-3.8.13-7.61.02-11.42.02v.02Zm8.31-24.02c0-2.65-.05-5.3.01-7.95.06-2.55-1.1-3.95-3.64-4.01-3.22-.07-6.45-.07-9.68,0-2.14.05-3.46,1.09-3.45,3.42,0,5.65,0,11.29,0,16.94,0,2.05.88,3.15,3.06,3.35,3.45.32,6.9.27,10.35.07,2.41-.14,3.43-1.51,3.37-3.88-.06-2.65-.01-5.3-.01-7.95Z"/>
  <path class="cls-1" d="m587.84,710.57c-3.81,0-7.62.1-11.42-.02-7.19-.24-12.29-4.95-12.55-12.14-.29-7.95-.3-15.92.01-23.87.27-6.83,4.91-11.37,11.67-11.83,8.29-.57,16.6-.57,24.89.02,6.15.43,10.6,4.67,11.16,10.78.78,8.51.76,17.05.04,25.56-.59,6.92-5.4,11.25-12.38,11.48-3.8.13-7.61.02-11.42.02Zm8.48-23.98h-.01c0-2.76.02-5.53,0-8.29-.02-2.38-1.3-3.64-3.64-3.69-3.22-.07-6.45-.06-9.68,0-2.16.04-3.46,1.1-3.47,3.41,0,5.64-.01,11.29-.01,16.93,0,2.02.83,3.18,3.03,3.37,3.45.31,6.9.26,10.35.08,2.42-.12,3.45-1.53,3.43-3.86-.02-2.65,0-5.3,0-7.95Z"/>
  <path class="cls-1" d="m547.3,685.25c6.61,3.45,9.27,8.59,7.77,14.91-1.49,6.26-6.22,9.63-13.73,9.66-9.81.04-19.63-.08-29.44.07-2.53.04-3.02-.84-3-3.16.1-13.5.07-27.01.02-40.51,0-1.87.14-2.93,2.52-2.89,9.69.15,19.4-.07,29.09.14,9.6.2,14.99,9.23,10.78,17.57-.94,1.85-2.68,2.79-4.01,4.21Zm-16.1,13.6h0c1.72-.01,3.45,0,5.17-.02,2.09-.02,3.15-1.08,3.23-3.18.08-2.02-.73-3.51-2.8-3.62-3.55-.18-7.12-.07-10.69-.1-.95,0-1.39.38-1.62,1.35-.98,4.21.03,5.57,4.29,5.57.8,0,1.61,0,2.41,0Zm-1.11-17.35c1.15,0,2.31-.03,3.46,0,2.32.08,3.43-1.19,3.57-3.32.15-2.27-.82-3.86-3.3-3.95-2.53-.1-5.07-.05-7.61-.06-.89,0-1.44.3-1.71,1.3-1.16,4.31.1,6.03,4.55,6.03.35,0,.69,0,1.04,0Z"/>
  <path class="cls-1" d="m221.9,705.57c-6.44,3.84-12.79,5.43-19.68,5.04-7.09-.39-11.89-4.98-12.2-12.03-.64-14.43,3.2-18.42,17.69-18.42,3.35,0,6.7,0,10.05,0,1.45,0,3.11.4,2.95-2.09-.13-2.1-.62-3.75-3.07-3.71-4.27.07-8.54.24-12.81.42-2.65.11-5.31.2-7.94.53-2.25.28-2.67-.64-2.7-2.68-.12-8.78-.17-8.62,8.64-9.25,7.38-.52,14.75-1.1,22.13-.68,6.66.38,11.16,4.66,11.34,11.24.31,11.31.1,22.63.17,33.95,0,1.54-.6,2-2.05,1.97-3-.07-6.02-.23-9,.04-2.96.27-3.59-1.32-3.51-4.32Zm-7.85-13.93c-1.5,0-3,.02-4.5,0-2.28-.04-3.9.68-3.79,3.31.11,2.59,1.86,3.21,4.06,3.12,2.89-.11,5.7-.72,8.54-1.17,2.3-.37,2.32-1.64,2.34-3.38.03-2.27-1.53-1.85-2.85-1.88-1.27-.03-2.54,0-3.81,0Z"/>
  <path class="cls-1" d="m74.68,663.4c5.39,0,10.32.05,15.24-.03,1.84-.03,1.9,1.38,2.31,2.49,2.77,7.45,5.51,14.91,8.26,22.37.34.93.72,1.84,1.43,3.65,2-6.36,3.74-11.9,5.48-17.45.93-2.97,1.93-5.92,2.72-8.92.38-1.44.91-2.18,2.53-2.15,4.16.09,8.32.09,12.48,0,2-.04,2.05.85,1.5,2.35-5.97,16.22-11.75,32.5-17.95,48.63-2.89,7.52-8.66,11.48-17.02,10.96-.58-.04-1.16,0-1.73-.04-11.66-.72-8.65.9-9.09-10.44-.07-1.69.75-2.19,2.32-2.12,1.84.09,3.7.06,5.54,0,4.22-.14,5.57-2.09,3.93-6.17-2.95-7.38-6.13-14.67-9.19-22.01-2.88-6.89-5.73-13.78-8.78-21.12Z"/>
  <path class="cls-1" d="m935.29,686.8c0,6.7-.08,13.4.04,20.09.04,2.22-.55,3.15-2.9,2.98-2.53-.18-5.08-.06-7.62-.04-1.97.02-3.91.36-4.13-2.68-.13-1.81-1.52-.73-2.31-.29-5.74,3.18-11.92,4.06-18.39,3.72-6.59-.35-11.29-4.22-11.82-10.79-.93-11.52-.19-23.08-.38-34.62-.02-1.35.56-1.83,1.87-1.81,4.04.04,8.08.07,12.13,0,2.11-.04,1.7,1.4,1.7,2.59.02,8.66,0,17.32,0,25.98,0,5.17.49,5.66,5.47,5.56q10.53-.2,10.53-10.62c0-6.93.08-13.86-.05-20.78-.04-2.09.5-2.87,2.69-2.76,3.46.17,6.94.2,10.39,0,2.46-.15,2.82.92,2.79,3.03-.1,6.81-.04,13.63-.04,20.44Z"/>
  <path class="cls-1" d="m349.38,686.5c0-6.81.08-13.63-.05-20.44-.04-2.13.57-2.83,2.72-2.72,3.34.17,6.7.2,10.04,0,2.42-.15,2.89.85,2.81,2.99-.14,3.8.03,7.62-.07,11.43-.05,1.75.46,2.5,2.33,2.44,3.58-.11,7.16-.1,10.74,0,1.67.04,2.2-.56,2.17-2.2-.09-4.04.02-8.08-.05-12.12-.03-1.62.2-2.59,2.21-2.52,3.81.13,7.62.1,11.43.01,1.64-.04,2.21.52,2.2,2.19-.05,13.97-.05,27.94,0,41.91,0,1.8-.6,2.45-2.4,2.4-3.69-.1-7.39-.11-11.08,0-1.84.06-2.41-.61-2.36-2.4.1-4.15-.06-8.32.07-12.47.06-1.96-.55-2.63-2.53-2.55-3.46.14-6.93.12-10.39,0-1.87-.06-2.37.69-2.33,2.44.1,4.04-.05,8.08.06,12.12.05,1.97-.34,2.97-2.63,2.86-3.45-.18-6.93-.15-10.39,0-2.02.08-2.56-.66-2.53-2.59.09-6.93.04-13.85.04-20.78Z"/>
  <path class="cls-1" d="m798.79,648.52c7.97,0,15.95.07,23.92-.04,2.29-.03,2.92.72,2.94,2.98.11,9.8.18,9.8-9.6,9.8q-8.84,0-8.84,8.68c0,12.13-.1,24.26.07,36.39.04,2.98-.9,3.76-3.71,3.55-3.33-.24-6.71-.21-10.05,0-2.46.15-3.11-.7-3.09-3.11.11-13.98-.03-27.96.12-41.94.03-2.84-.63-3.84-3.58-3.64-3.91.27-7.85-.01-11.78.1-1.96.06-2.84-.32-2.9-2.61-.26-10.17-.34-10.17,9.85-10.17,5.55,0,11.09,0,16.64,0Z"/>
  <path class="cls-1" d="m432.59,663.39c4.62,0,9.24.07,13.86-.04,1.82-.04,2.31.57,2.38,2.36.41,9.7.46,9.7-9.28,9.7-4.16,0-8.32-.07-12.47.03-3.8.09-4.69,1.03-4.73,4.79-.05,4.62.04,9.24-.03,13.86-.05,3.09,1.34,4.44,4.42,4.27,6.45-.36,12.92-.56,19.36-1.02,2.22-.16,2.7.56,2.73,2.65.15,9.33.22,9.32-9.17,9.83-6.69.36-13.36.93-20.07.77-7.56-.18-12.19-4.31-12.65-11.78-.47-7.84-.49-15.7.04-23.54.47-7.06,5.28-11.61,12.43-11.82,4.39-.13,8.78-.02,13.17-.02,0-.01,0-.03,0-.04Z"/>
  <path class="cls-1" d="m478.14,663.39c6.47,0,12.94.07,19.41-.04,2.1-.03,3.05.33,3.08,2.79.1,9.28.2,9.28-9.03,9.28q-5.48,0-5.48,5.47c0,8.55-.08,17.1.05,25.65.04,2.45-.39,3.58-3.17,3.36-3.33-.26-6.7-.21-10.04-.01-2.45.14-3.14-.71-3.1-3.11.12-9.36-.04-18.72.11-28.07.04-2.59-.71-3.52-3.32-3.32-2.76.21-5.55-.06-8.31.08-2,.1-2.79-.38-2.83-2.63-.16-9.44-.25-9.44,9.12-9.44,4.51,0,9.01,0,13.52,0Z"/>
  <path class="cls-1" d="m266.34,663.39c5.42,0,10.85.08,16.27-.04,1.99-.04,2.49.63,2.54,2.56.27,9.52.33,9.51-9.08,9.51-3.35,0-6.7.14-10.04-.05-2.52-.14-3.12.87-3.09,3.21.11,9.23-.07,18.47.11,27.69.06,2.92-.8,3.83-3.68,3.61-3.21-.25-6.46-.12-9.69-.03-1.63.05-2.23-.5-2.22-2.17.05-14.08.06-28.16-.01-42.24-.01-2.13,1.12-2.09,2.62-2.08,5.42.04,10.85.01,16.27.01Z"/>
  <path class="cls-1" d="m961.46,668.85c5.51-4.32,10.8-6.49,16.96-6.38,2.25.04,3.07.65,2.92,2.93-.17,2.64-.18,5.31,0,7.96.16,2.37-.58,3.27-3.06,3.16-4.26-.19-8.5-.12-12.65,1.32-2.17.75-3.08,1.73-3.03,4.15.16,8.31,0,16.62.1,24.93.03,2.22-.54,3.11-2.9,2.98-3.34-.19-6.7-.18-10.04,0-2.24.12-2.67-.77-2.66-2.8.07-13.73.07-27.47,0-41.2-.01-1.97.56-2.68,2.54-2.53,1.95.15,3.92.07,5.88.02,3.36-.07,7.15-.81,5.94,5.47Z"/>
  <path class="cls-1" d="m495.87,567.36c-5.28,3.35-8.61,8.29-14.32,9.89-.53-1.75.42-2.77,1.27-3.56,3.37-3.12,6.8-6.19,10.35-9.1,1.6-1.31,1.47-1.99-.25-2.88-3.09-1.59-6.25-2.96-9.68-3.61-1.12-.21-2.29-.2-3.29-1.5,4.75-1.27,9.34-.75,13.77.33,2.99.73,3.35-.06,3.01-2.73-.39-3.08-.8-6.12-1.95-9.15,3.88,1.22,4.96,4.82,6.82,8,4.46-3.3,8.21-7.52,13.24-10.11-2.79,5.42-6.97,9.83-10.67,15.03,5.51-.18,10.7-1.5,16.68.51-4.24,1.91-7.96,1.98-11.41,3.02-5.25,1.58-5.21,1.47-1.96,5.72,2.47,3.22,5.39,6.2,6.81,11.32-4.05-2.42-6.52-5.12-9.25-7.49-3.86-3.35-3.75-3.35-5.26,1.37-1.17,3.66-1.87,7.53-4.47,11.51-.73-5.86.08-10.93.56-16.58Z"/>
  <path class="cls-1" d="m362.06,418.67c-1.37-5.89-.41-11.09-.91-16.75-4.3,3.88-7.79,8.12-12.71,10.69,1.92-6.36,6.97-10.23,11.54-14.8-4.42-3.07-9.51-3.53-14.48-4.79,2-1.41,2.33-1.52,6.07-1.71,1.15-.06,2.31-.04,3.46.05,7.38.6,7.5.47,5.2-6.86-.5-1.61-1.19-3.16-2-5.25,4.16,1.51,5.63,4.8,7.66,7.92,4.36-3.49,7.64-8.18,12.96-11.76-2.56,6.24-6.65,10.69-9.58,16.17,5.36.16,10.35-2.25,15.44-.23-4.81,2.48-10.39,2.91-15.02,6.09,3.74,4.26,8.14,7.87,11,13.9-4.46-1.59-6.95-4.34-9.85-6.42-4.2-3-4.14-3.06-5.24,1.87-.84,3.76-1.29,7.65-3.56,11.89Z"/>
  <path class="cls-1" d="m664.88,519.62c-3.88-1.09-6.84-3.63-9.83-6.05-1.98-1.6-2.77-1.92-3.44,1.04-.88,3.86-1.74,7.78-3.86,11.37v-13.76c-4.61,3.12-7.65,7.42-12.35,9.66,2.66-5.1,6.44-9.39,10.07-14.21-4.38-1.78-9.22-1.98-13.56-5.17,5.32-1.66,10.13-.39,14.92-.7-.61-3.99-2.75-7.46-2.63-11.85,3.27,2.36,4.84,5.67,7.3,8.34,3.85-3.23,6.9-7.43,11.7-9.68-1.97,4.83-5.54,8.64-8.73,13.24,5.08.24,9.74-1.37,15.22-.55-4.31,2.53-8.35,3.72-12.36,4.9-2.46.73-2.66,1.43-.85,3.28,3.06,3.11,6.16,6.21,8.39,10.16Z"/>
  <path class="cls-1" d="m673.32,753.57c-12.69,0-25.39.01-38.08-.02-1.2,0-2.86.69-2.9-1.72-.04-2.27,1.4-1.94,2.76-1.94,25.5,0,51.01,0,76.51,0,1.38,0,2.81-.26,2.75,1.98-.07,2.41-1.75,1.69-2.95,1.69-12.69.04-25.39.03-38.08.03Z"/>
  <path class="cls-1" d="m335.58,753.57c-12.58,0-25.17.02-37.75-.03-1.27,0-3.2.84-3.12-1.85.07-2.62,1.97-1.78,3.24-1.79,25.17-.04,50.33-.04,75.5,0,1.17,0,2.93-.85,3.28,1.38.37,2.31-1.07,2.29-2.71,2.29-12.81-.03-25.63-.02-38.44-.02Z"/>
  <path class="cls-1" d="m313.41,497.02c-.04.08-.07.16-.13.23-.03.03-.11,0-.16,0,.12-.05.23-.11.35-.16,0,0-.05-.06-.05-.06Z"/>
  <path class="cls-2" d="m478.29,394.95c.45-.65,1.04-1.07,1.98-1.29-.02,1.08-.7,1.46-1.26,1.92-.24-.21-.48-.42-.72-.63Z"/>
  <path class="cls-2" d="m485.98,447.04c.14-.52.28-1.03.42-1.55.09.07.24.13.26.22.11.58.11,1.14-.53,1.45,0,0-.14-.11-.14-.11Z"/>
  <path class="cls-2" d="m342.21,485c.23-.28.37-.96.8-.63.37.28.07.76-.42.92-.13-.1-.25-.2-.38-.3Z"/>
  <path class="cls-2" d="m475.55,456.72c.17-.37.33-.73.5-1.1.45.51.26,1-.06,1.49-.15-.13-.3-.26-.44-.39Z"/>
  <path class="cls-2" d="m327.61,487.7c.29-.27.58-.53.87-.8.46.55.13.95-.26,1.34-.2-.18-.41-.36-.61-.54Z"/>
  <path class="cls-2" d="m328.23,488.24c-.2.49-.41.98-.61,1.47-.28-.3-.55-.61-.83-.92.28-.37.55-.73.83-1.09.2.18.41.36.61.54Z"/>
  <path class="cls-2" d="m321.32,490.37c.32-.24.89-.72.92-.69.51.56.08.92-.34,1.27-.19-.19-.39-.38-.58-.58Z"/>
  <path class="cls-2" d="m541.99,460.09c-.11-.12-.3-.24-.31-.36-.01-.18.1-.36.17-.55.11.12.29.22.3.35.02.17-.1.36-.16.56Z"/>
  <path class="cls-2" d="m436.01,498.56c-.44-.37-.87-.73-.35-1.35.3.28.61.56.91.85-.19.17-.37.34-.56.5Z"/>
  <path class="cls-2" d="m431.02,499.38c-.33-.43-.67-1.08-.24-1.39.64-.47.63.46.96.72-.24.22-.47.44-.71.66Z"/>
  <path class="cls-2" d="m366.56,482.21c.42-.41.88-.55,1.4-.19-.24.3-.47.6-.71.9-.23-.24-.47-.48-.7-.72Z"/>
  <path class="cls-2" d="m363.84,504.85c-.42-.43-.65-.9-.27-1.48.31.28.61.55.92.83-.22.22-.43.44-.65.65Z"/>
  <path class="cls-2" d="m363.2,514.51c-.45-.37-.74-.78-.33-1.37.31.25.62.51.93.76-.2.2-.4.4-.59.6Z"/>
  <path class="cls-2" d="m555.28,440.31c-.43-.26-.49-.62-.31-1.06.26.22.52.44.78.66-.15.13-.31.27-.47.4Z"/>
  <path class="cls-2" d="m610.11,439.09c-.16.06-.31.11-.46.16,0-.2,0-.41.03-.61.01-.07.14-.11.21-.17.07.21.14.41.21.62Z"/>
  <path class="cls-2" d="m548.89,403.83c.53-.33,1.01-.92,1.72-.35l-.07-.05c-.28.38-.56.76-.84,1.15-.27-.25-.54-.5-.81-.75Z"/>
  <path class="cls-2" d="m335.87,485.42c.34-.23.95-.69.99-.64.51.57.05.97-.33,1.38-.22-.25-.44-.49-.66-.74Z"/>
  <path class="cls-2" d="m622.25,464.7l.9-.77c.37.55.14,1-.25,1.42-.22-.21-.43-.43-.65-.64Z"/>
  <path class="cls-2" d="m671.52,396.34c-.34-.34-1.23-.53-.77-1.12.42-.52.92.08,1.25.5-.16.21-.32.41-.49.62Z"/>
  <path class="cls-2" d="m593.12,377.38c-.49.33-.99.57-1.53.08.38-.18.75-.36,1.13-.54.14.15.27.31.41.46Z"/>
  <path class="cls-2" d="m448.23,466.25c-.3-.29-.59-.57-.89-.86.55-.35,1.06-.18,1.55.14-.22.24-.44.47-.66.71Z"/>
  <path class="cls-2" d="m661.1,394.81c-.26-.29-.96-.5-.53-.94.34-.35.8.04.99.51-.16.13-.31.28-.46.43Z"/>
  <path class="cls-2" d="m423.89,470.44c-.23-.31-.46-.62-.69-.93.57-.42.95-.09,1.3.35-.2.2-.4.39-.61.59Z"/>
  <path class="cls-2" d="m630.7,394.02c-.15-.26-.49-.63-.41-.77.3-.58.69-.16,1.05.02-.21.25-.42.5-.63.75Z"/>
  <path class="cls-2" d="m499.25,393.04c-.17.29-.34.59-.5.88-.18-.21-.36-.43-.55-.64.31-.24.59-.67,1.05-.24Z"/>
  <path class="cls-2" d="m489.58,393.8c-.04-.15-.07-.31-.11-.46.14,0,.27,0,.41-.01-.12.13-.23.26-.35.39,0,0,.05.08.05.08Z"/>
  <path class="cls-2" d="m652.04,393.39c-.11-.28-.4-.7-.3-.81.39-.48.72-.1,1.01.21-.24.2-.47.4-.71.6Z"/>
  <path class="cls-2" d="m430.19,469.66c-.12-.25-.41-.64-.33-.73.35-.41.67-.16.93.19-.2.18-.4.36-.59.53Z"/>
  <polygon class="cls-2" points="392.18 466.05 392.28 466.26 392.04 466.23 392.18 466.05"/>
  <path class="cls-2" d="m507.92,392.56c.28-.1.69-.36.8-.27.44.38.1.71-.21,1-.2-.24-.39-.48-.59-.72Z"/>
  <path class="cls-2" d="m499.49,392.51c.06.06.11.12.16.17-.13.12-.27.24-.4.36-.05-.09-.15-.23-.13-.25.11-.11.25-.19.38-.28Z"/>
  <path class="cls-2" d="m488.41,394.03c.35-.25.65-.82,1.17-.24,0,0-.05-.08-.05-.08-.2.27-.39.53-.59.8-.17-.16-.35-.32-.52-.48Z"/>
  <path class="cls-2" d="m488.93,394.52c-.18.29-.35.57-.53.86-.2-.26-.4-.53-.61-.8.2-.18.41-.36.61-.55.17.16.35.32.52.48Z"/>
  <path class="cls-2" d="m393.83,465.12c-.06.17-.12.35-.18.52-.12-.09-.24-.18-.36-.27.19-.07.39-.15.58-.22,0,0-.04-.04-.04-.04Z"/>
  <path class="cls-2" d="m661.56,394.38c.28.18.56.37.83.55-.23.19-.45.37-.68.56-.2-.23-.4-.46-.61-.68.14-.15.29-.3.45-.43Z"/>
  <path class="cls-2" d="m672.09,396.88c-.19-.18-.38-.37-.57-.55.16-.2.32-.41.49-.62.3.16.6.32.9.48-.27.23-.54.46-.82.69Z"/>
  <path class="cls-2" d="m444.96,502.85c0,.07,0,.14,0,.21-.12-.04-.24-.08-.37-.12.06-.07.12-.15.2-.19.03-.02.12.07.18.1Z"/>
  <path class="cls-2" d="m550.62,403.48c-.02-.15-.04-.31-.06-.46.14.03.27.05.41.08-.14.11-.28.22-.42.33,0,0,.07.05.07.05Z"/>
  <path class="cls-2" d="m389.2,317.24c.35.24,1.26.11.86.82-.27.48-.92.03-1.37-.21.17-.2.34-.41.51-.61Z"/>
</svg>